<svg version="1.1" id="Layer_1" xmlns="http://www.w3.org/2000/svg" xmlns:xlink="http://www.w3.org/1999/xlink" x="0px" y="0px"
	 width="100%" viewBox="0 0 110 110" enable-background="new 0 0 110 110" xml:space="preserve">
<path fill="#FDFDFD" opacity="1.000000" stroke="none" 
	d="
M62.000000,111.000000 
	C41.333332,111.000000 21.166666,111.000000 1.000000,111.000000 
	C1.000000,74.333336 1.000000,37.666668 1.000000,1.000000 
	C37.666668,1.000000 74.333336,1.000000 111.000000,1.000000 
	C111.000000,37.666668 111.000000,74.333336 111.000000,111.000000 
	C94.833336,111.000000 78.666664,111.000000 62.000000,111.000000 
M50.970036,105.519333 
	C72.684311,106.447983 93.354660,94.239426 98.563919,77.408081 
	C98.355263,77.150612 98.167900,76.871834 97.934830,76.638786 
	C92.163452,70.868271 85.869896,65.524368 80.739792,59.231781 
	C73.971497,50.929790 66.100998,46.992920 55.333347,48.729507 
	C51.436771,49.357937 47.353783,48.830517 43.355858,48.830517 
	C43.224880,49.278545 43.093903,49.726574 42.962925,50.174603 
	C47.999523,55.028332 53.025223,59.893436 58.075817,64.732559 
	C63.064934,69.512787 68.079224,74.266747 73.382019,79.317535 
	C62.764458,86.904533 52.384575,87.978256 41.871464,82.736038 
	C31.267389,77.448471 25.699734,68.153648 26.044218,56.426327 
	C26.481663,41.534233 35.281212,32.636425 48.738873,28.703035 
	C43.784771,23.530596 38.875408,18.404865 33.979706,13.293396 
	C14.104707,22.483679 3.171789,44.016735 7.062132,66.239471 
	C10.678658,86.898094 28.589966,103.182518 50.970036,105.519333 
M91.464951,56.027946 
	C95.051552,60.070335 98.638153,64.112724 102.224747,68.155113 
	C102.594276,67.754890 102.963806,67.354675 103.333336,66.954460 
	C103.333336,47.436970 103.333336,27.919481 103.333336,8.770121 
	C83.818024,8.770121 64.744125,8.770121 45.670219,8.770121 
	C45.307411,9.339593 44.944603,9.909066 44.581795,10.478539 
	C49.691345,15.172168 54.951572,19.715530 59.846214,24.623482 
	C62.255993,27.039810 64.609634,28.282751 68.100830,28.084026 
	C73.334358,27.786123 78.597397,28.006557 83.712128,28.006557 
	C85.030746,38.033062 80.347588,48.827938 91.464951,56.027946 
z"/>
<path fill="#363636" opacity="1.000000" stroke="none" 
	d="
M50.536518,105.445145 
	C28.589966,103.182518 10.678658,86.898094 7.062132,66.239471 
	C3.171789,44.016735 14.104707,22.483679 33.979706,13.293396 
	C38.875408,18.404865 43.784771,23.530596 48.738873,28.703035 
	C35.281212,32.636425 26.481663,41.534233 26.044218,56.426327 
	C25.699734,68.153648 31.267389,77.448471 41.871464,82.736038 
	C52.384575,87.978256 62.764458,86.904533 73.382019,79.317535 
	C68.079224,74.266747 63.064934,69.512787 58.075817,64.732559 
	C53.025223,59.893436 47.999523,55.028332 42.962925,50.174603 
	C43.093903,49.726574 43.224880,49.278545 43.355858,48.830517 
	C47.353783,48.830517 51.436771,49.357937 55.333347,48.729507 
	C66.100998,46.992920 73.971497,50.929790 80.739792,59.231781 
	C85.869896,65.524368 92.163452,70.868271 97.934830,76.638786 
	C98.167900,76.871834 98.355263,77.150612 98.562065,77.409584 
	C93.354660,94.239426 72.684311,106.447983 50.536518,105.445145 
z"/>
<path fill="#FA7F24" opacity="1.000000" stroke="none" 
	d="
M91.215118,55.775818 
	C80.347588,48.827938 85.030746,38.033062 83.712128,28.006557 
	C78.597397,28.006557 73.334358,27.786123 68.100830,28.084026 
	C64.609634,28.282751 62.255993,27.039810 59.846214,24.623482 
	C54.951572,19.715530 49.691345,15.172168 44.581795,10.478539 
	C44.944603,9.909066 45.307411,9.339593 45.670219,8.770121 
	C64.744125,8.770121 83.818024,8.770121 103.333336,8.770121 
	C103.333336,27.919481 103.333336,47.436970 103.333336,66.954460 
	C102.963806,67.354675 102.594276,67.754890 102.224747,68.155113 
	C98.638153,64.112724 95.051552,60.070335 91.215118,55.775818 
z"/>
</svg>